#!OML:ASF F:\VICON\USERDATA\INSTALL\rory3\rory3.ASF
:FULLY-SPECIFIED
:DEGREES
230
root -1.6845 15.6575 0.229731 -187.419 56.8501 -186.705
lowerback 8.51497 0.431552 -4.37179
upperback -1.01301 0.0684851 -1.36368
thorax -5.85061 0.166024 1.02235
lowerneck -12.1176 -7.2134 -12.1186
upperneck 23.713 -8.88302 7.8684
head 10.5156 -4.12495 3.70086
rclavicle -1.34971e-013 -2.10712e-014
rhumerus -35.8632 -5.31155 -84.1667
rradius 25.2723
rwrist 13.6111
rhand -16.0285 16.3068
rfingers 7.12502
rthumb 10.1727 -13.4272
lclavicle -1.34971e-013 -2.10712e-014
lhumerus -30.7384 10.4696 79.8593
lradius 22.53
lwrist -4.43803
lhand -13.3426 12.8677
lfingers 7.12502
lthumb 12.7629 42.4576
rfemur -20.0723 2.42224 18.206
rtibia 64.7733
rfoot -7.41428 -12.785
rtoes -11.6193
lfemur -9.41115 -6.2631 -31.0568
ltibia 29.9888
lfoot -16.458 11.5957
ltoes -2.95356
231
root -1.602 15.6392 0.160949 -188.202 56.6605 -187.614
lowerback 8.61717 0.410338 -4.94823
upperback -0.987413 -0.0249721 -1.43848
thorax -5.87879 0.140031 1.27932
lowerneck -12.1946 -7.21885 -12.1662
upperneck 23.7807 -8.85655 7.80362
head 10.5521 -4.12228 3.68791
rclavicle 4.39695e-015 -6.95746e-015
rhumerus -35.8745 -5.18166 -84.0989
rradius 25.3587
rwrist 13.6751
rhand -15.9846 16.1285
rfingers 7.12502
rthumb 10.215 -13.6034
lclavicle 4.39695e-015 -6.95746e-015
lhumerus -30.4173 10.0166 80.2643
lradius 23.125
lwrist -3.79486
lhand -13.1609 12.8516
lfingers 7.12502
lthumb 12.9381 42.4305
rfemur -21.1316 2.59816 17.628
rtibia 64.2892
rfoot -8.38613 -12.8629
rtoes -10.5034
lfemur -8.88383 -6.30299 -31.7511
ltibia 29.9278
lfoot -16.8881 11.553
ltoes -3.12948
232
root -1.52051 15.626 0.0992625 -188.01 56.4056 -187.511
lowerback 8.69123 0.303383 -5.03037
upperback -0.996665 -0.179059 -1.37679
thorax -5.92137 0.0686134 1.4108
lowerneck -12.3203 -7.20987 -12.1392
upperneck 23.8173 -8.82741 7.7565
head 10.5828 -4.10971 3.66771
rclavicle -1.24096e-014 -2.98177e-015
rhumerus -35.806 -5.15359 -84.0794
rradius 25.4034
rwrist 13.8284
rhand -15.9357 16.0941
rfingers 7.12502
rthumb 10.2622 -13.6355
lclavicle -1.24096e-014 -2.98177e-015
lhumerus -30.0922 9.73364 80.5434
lradius 23.8209
lwrist -3.3663
lhand -12.996 13.1549
lfingers 7.12502
lthumb 13.097 42.7236
rfemur -22.2783 2.76627 17.6927
rtibia 63.6485
rfoot -9.7886 -12.9219
rtoes -8.57408
lfemur -8.5049 -6.33024 -31.798
ltibia 29.8171
lfoot -17.0738 11.4158
ltoes -3.82252
233
root -1.43467 15.6156 0.0297036 -187.968 56.2375 -187.489
lowerback 8.74285 0.218534 -5.05931
upperback -0.97564 -0.296597 -1.35395
thorax -5.921 0.0118177 1.46714
lowerneck -12.3576 -7.17379 -12.1438
upperneck 23.7543 -8.77457 7.76557
head 10.5613 -4.08593 3.67746
rclavicle -1.09875e-015 2.32578e-014
rhumerus -35.7997 -5.05553 -84.1102
rradius 25.4755
rwrist 13.8857
rhand -15.9854 16.0288
rfingers 7.12502
rthumb 10.2143 -13.7032
lclavicle -1.09875e-015 2.32578e-014
lhumerus -29.8295 9.20978 80.8821
lradius 24.5764
lwrist -2.75255
lhand -12.9495 13.4109
lfingers 7.12502
lthumb 13.1419 42.9768
rfemur -23.2133 2.91929 17.6679
rtibia 62.854
rfoot -11.0294 -12.7951
rtoes -7.6472
lfemur -8.01545 -6.41186 -31.9237
ltibia 29.7499
lfoot -17.4308 11.4053
ltoes -4.61509
234
root -1.34676 15.6017 -0.0429901 -188.67 56.1204 -188.235
lowerback 8.78382 0.214264 -5.47464
upperback -0.900196 -0.346304 -1.44939
thorax -5.86105 -0.00084459 1.60671
lowerneck -12.3089 -7.16381 -12.1757
upperneck 23.6466 -8.75495 7.75605
head 10.5114 -4.08386 3.68139
rclavicle -5.8973e-014 -2.11706e-014
rhumerus -35.8358 -4.84889 -84.1832
rradius 25.6705
rwrist 13.7772
rhand -16.0018 15.7406
rfingers 7.12502
rthumb 10.1984 -13.9922
lclavicle -5.8973e-014 -2.11706e-014
lhumerus -29.5484 8.72307 81.1853
lradius 25.2567
lwrist -2.2723
lhand -12.5893 13.2281
lfingers 7.12502
lthumb 13.4891 42.7713
rfemur -23.9593 2.99 17.1518
rtibia 61.9168
rfoot -11.3503 -12.8496
rtoes -7.75611
lfemur -7.42885 -6.42799 -32.5379
ltibia 29.7679
lfoot -17.9912 11.4863
ltoes -5.12576
